<svg width="24" height="20" viewBox="0 0 24 20" fill="none" xmlns="http://www.w3.org/2000/svg">
<path d="M2.396 10H0V8H2.396V10ZM10 3.542V0H8V3.542H10ZM5.207 4.418L3.051 2.262L1.637 3.676L3.793 5.832L5.207 4.418V4.418ZM14.668 2.022L12.553 4.136L13.967 5.55L16.082 3.436L14.668 2.022V2.022ZM2.968 12.929L0.77 14.848L2.073 16.365L4.271 14.446L2.968 12.929V12.929ZM24 15.722C24 18.084 22.05 20 19.646 20H9.354C6.95 20 5 18.084 5 15.722C5 14.952 5.211 14.232 5.574 13.609C4.61 12.702 4 11.429 4 10C4 7.238 6.238 5 9 5C10.329 5 11.523 5.528 12.414 6.376C13.063 6.136 13.764 6 14.5 6C17.671 6 20.253 8.443 20.421 11.516C22.455 11.875 24 13.621 24 15.722ZM6 10C6 10.86 6.37 11.628 6.955 12.172C7.44 11.856 7.984 11.621 8.579 11.516C8.667 9.906 9.422 8.474 10.573 7.47C10.113 7.182 9.582 7 9 7C7.346 7 6 8.346 6 10V10ZM22 15.722C22 13.646 20.021 13.104 18.511 13.21C18.729 11.771 18.271 8 14.5 8C10.625 8 10.438 11.854 10.489 13.209C9.104 13.125 7 13.604 7 15.722C7 16.978 8.056 18 9.354 18H19.645C20.944 18 22 16.978 22 15.722V15.722Z" fill="#DD3902"/>
</svg>